<?xml version="1.0" standalone="no"?>
<!DOCTYPE svg PUBLIC "-//W3C//DTD SVG 1.1//EN" "http://www.w3.org/Graphics/SVG/1.1/DTD/svg11.dtd" >
<svg xmlns="http://www.w3.org/2000/svg" xmlns:xlink="http://www.w3.org/1999/xlink" version="1.1">
<metadata>
Created by FontForge 20170910 at Fri Jul 20 03:08:54 2012
 By Jimmy Wärting
(c) 1999-2012 Typodermic Fonts Inc. See attached license agreement. If agreement is missing visit typodermicfonts.com for more info.
</metadata>
<defs>
<font id="Strasua-Regular" horiz-adv-x="662" >
  <font-face 
    font-family="Strasua"
    font-weight="400"
    font-stretch="normal"
    units-per-em="1000"
    panose-1="4 1 4 0 0 0 0 0 0 0"
    ascent="759"
    descent="-241"
    cap-height="780"
    bbox="-230 -241 1211 959"
    underline-thickness="20"
    underline-position="-133"
    unicode-range="U+0020-2122"
  />
<missing-glyph horiz-adv-x="452" 
d="M129 0q-97 0 -97 84v488q0 85 97 85h193q98 0 98 -85v-488q0 -84 -98 -84h-193zM368 572q0 39 -46 39h-193q-46 0 -46 -39v-488q0 -39 46 -39h193q46 0 46 39v488z" />
    <glyph glyph-name=".notdef" horiz-adv-x="452" 
d="M129 0q-97 0 -97 84v488q0 85 97 85h193q98 0 98 -85v-488q0 -84 -98 -84h-193zM368 572q0 39 -46 39h-193q-46 0 -46 -39v-488q0 -39 46 -39h193q46 0 46 39v488z" />
    <glyph glyph-name="space" unicode=" " horiz-adv-x="241" 
 />
    <glyph glyph-name="exclam" unicode="!" horiz-adv-x="215" 
d="M38 66q0 33 20.5 51t48.5 18q29 0 50 -18t21 -51q0 -32 -21 -50.5t-50 -18.5q-28 0 -48.5 18.5t-20.5 50.5zM60 232l-22 548h136l-22 -548h-92z" />
    <glyph glyph-name="quotedbl" unicode="&#x22;" horiz-adv-x="393" 
d="M43 583v238h114l-43 -238h-71zM244 583v238h114l-43 -238h-71z" />
    <glyph glyph-name="numbersign" unicode="#" horiz-adv-x="570" 
d="M334 548h-100v-123h100v123zM425 328v-134h-91v134h-100v-134h-91v134h-120v97h120v123h-120v98h120v134h91v-134h100v134h91v-134h121v-98h-121v-123h121v-97h-121z" />
    <glyph glyph-name="dollar" unicode="$" horiz-adv-x="603" 
d="M350 838v-58h177v-136h-177v-161q51 -6 93 -26.5t72 -52.5t46.5 -73.5t16.5 -89.5t-16.5 -89t-46.5 -72.5t-72 -51.5t-93 -26v-60h-82v58h-222v136h222v213q-54 0 -99 16.5t-77 45t-49.5 68t-17.5 86.5q0 46 17.5 85t49.5 68t77 45.5t99 16.5v58h82zM268 644
q-43 0 -68 -23.5t-25 -56.5q0 -36 25.5 -57.5t67.5 -21.5v159zM350 139q51 10 78.5 39.5t27.5 65.5t-26 64.5t-80 37.5v-207z" />
    <glyph glyph-name="percent" unicode="%" horiz-adv-x="846" 
d="M216 644q-15 0 -31.5 -4t-31 -11.5t-24 -19t-9.5 -27.5q0 -15 10.5 -27t27 -21t36.5 -13.5t38 -4.5q15 0 32 4t31 12t23.5 20t9.5 28q0 15 -10 27t-26.5 20t-36.5 12.5t-39 4.5zM614 264q-15 0 -32 -4.5t-31.5 -12.5t-23.5 -20t-9 -27t10 -27t26 -20.5t35.5 -12.5
t39.5 -4q15 0 32 4t31.5 12.5t24 20t9.5 26.5q0 14 -10 26t-26 20.5t-36 13.5t-40 5zM225 780q37 0 71.5 -14t61 -40t42.5 -63t16 -83q0 -44 -15.5 -80.5t-41.5 -62.5t-60.5 -40.5t-73.5 -14.5q-40 0 -75 14.5t-61 40.5t-41 62.5t-15 80.5q0 46 15.5 83t42 63t61.5 40t73 14
zM174 0h-94l596 780h90zM621 398q39 0 74 -14.5t61.5 -41t41.5 -63t15 -79.5q0 -46 -15.5 -83t-42 -63t-61.5 -40t-73 -14t-72.5 14t-61 40t-42 63t-15.5 83q0 44 15 80.5t41 62.5t61 40.5t74 14.5z" />
    <glyph glyph-name="ampersand" unicode="&#x26;" horiz-adv-x="639" 
d="M344 1q-70 0 -127 13t-98 40.5t-63.5 70.5t-22.5 102q0 24 6.5 49.5t20 48t33 40.5t45.5 28q-41 24 -61.5 70.5t-20.5 95.5q0 50 19 91t55.5 70t90.5 45t123 16h26v-135h-48q-72 0 -104 -25t-32 -71q0 -42 33 -69t103 -27h70v97h128v-97h96v-136h-96v-181h96v-136h-272z
M392 137v181h-70q-69 0 -113.5 -21t-44.5 -70t44.5 -69.5t113.5 -20.5h70z" />
    <glyph glyph-name="quotesingle" unicode="'" horiz-adv-x="189" 
d="M42 583v238h103l-43 -238h-60z" />
    <glyph glyph-name="parenleft" unicode="(" horiz-adv-x="268" 
d="M120 104q0 -66 30.5 -108t93.5 -45v-91q-45 4 -83.5 23t-66.5 53t-44 81.5t-16 108.5v523q0 138 56 202t154 69v-91q-57 -2 -90.5 -43.5t-33.5 -114.5v-567z" />
    <glyph glyph-name="parenright" unicode=")" horiz-adv-x="269" 
d="M148 671q0 73 -33.5 114.5t-90.5 43.5v91q98 -5 154 -69t56 -202v-523q0 -61 -16 -108.5t-44 -81.5t-66.5 -53t-83.5 -23v91q63 3 93.5 45t30.5 108v567z" />
    <glyph glyph-name="asterisk" unicode="*" horiz-adv-x="456" 
d="M290 510l-60 -144l-64 142l-155 12l115 105l-37 151l136 -77l132 81l-31 -152l119 -101z" />
    <glyph glyph-name="plus" unicode="+" horiz-adv-x="435" 
d="M288 328v-144h-136v144h-137v135h137v133h136v-133h131v-135h-131z" />
    <glyph glyph-name="comma" unicode="," horiz-adv-x="216" 
d="M30 -68l33 238h136l-76 -238h-93z" />
    <glyph glyph-name="hyphen" unicode="-" horiz-adv-x="512" 
d="M43 328v135h425v-135h-425z" />
    <glyph glyph-name="period" unicode="." horiz-adv-x="226" 
d="M112 135q28 0 48.5 -18t20.5 -51q0 -32 -20.5 -50.5t-48.5 -18.5t-49 18.5t-21 50.5q0 33 21 51t49 18z" />
    <glyph glyph-name="slash" unicode="/" horiz-adv-x="450" 
d="M3 -1l381 781h63l-375 -781h-69z" />
    <glyph glyph-name="zero" unicode="0" horiz-adv-x="775" 
d="M405 780q76 0 138 -28t106.5 -78.5t69 -120.5t24.5 -155q0 -83 -25 -155.5t-69.5 -126.5t-106.5 -85t-137 -31h-35q-75 0 -137.5 31t-107 85t-69.5 126.5t-25 155.5q0 85 24.5 155t69 120.5t107 78.5t138.5 28h35zM603 387q0 57 -15 104.5t-41.5 81t-63.5 52.5t-80 19
h-31q-43 0 -80 -19t-64 -52.5t-42 -81t-15 -104.5q0 -55 15 -101t41.5 -79.5t63.5 -52t81 -18.5h31q44 0 81 18.5t63.5 52t41 79.5t14.5 101z" />
    <glyph glyph-name="one" unicode="1" horiz-adv-x="352" 
d="M179 0v506q0 138 -128 138h-40v136h40q129 0 196 -72.5t67 -201.5v-506h-135z" />
    <glyph glyph-name="two" unicode="2" horiz-adv-x="651" 
d="M41 0v247q0 51 20 94.5t55.5 75.5t84.5 50t107 18h65q42 0 68 23t26 56t-24.5 56.5t-69.5 23.5h-313v136h313q54 0 98.5 -16t76.5 -45t49.5 -68.5t17.5 -85.5q0 -47 -17.5 -86.5t-49.5 -68t-76.5 -45t-98.5 -16.5h-65q-69 0 -106.5 -29.5t-37.5 -72.5v-111h435v-136h-558
z" />
    <glyph glyph-name="three" unicode="3" horiz-adv-x="554" 
d="M43 646v135h197q131 0 200 -50t69 -152q0 -24 -5 -48t-16.5 -46.5t-30.5 -41.5t-46 -32q31 -14 52.5 -34.5t34.5 -44.5t18.5 -50t5.5 -50q0 -48 -18.5 -90t-57 -73.5t-97 -49.5t-139.5 -18h-167v136h189q70 0 114.5 23t44.5 72t-30.5 73t-75.5 24h-93v135h93q45 0 70 22
t25 70t-34.5 69t-113.5 21h-189z" />
    <glyph glyph-name="four" unicode="4" horiz-adv-x="648" 
d="M536 252v-252h-136v252h-131q-251 0 -251 242v286h136v-286q0 -107 115 -107h131v343h136v-343h86v-135h-86z" />
    <glyph glyph-name="five" unicode="5" horiz-adv-x="612" 
d="M43 0v136h269q63 0 104 30t41 78t-41 76.5t-104 28.5h-269v431h490v-136h-357v-159h136q60 0 109 -18.5t84 -51.5t54.5 -77.5t19.5 -96.5q0 -53 -19 -97t-54.5 -76t-84.5 -50t-109 -18h-269z" />
    <glyph glyph-name="six" unicode="6" horiz-adv-x="713" 
d="M569 644h-147q-59 0 -98.5 -10.5t-67 -31t-45.5 -50t-32 -67.5h278q108 0 167.5 -59.5t59.5 -173.5q0 -52 -17 -97.5t-55 -80t-98.5 -54.5t-148.5 -20q-65 0 -125.5 25.5t-107.5 75.5t-75 124.5t-28 172.5q0 85 28.5 155t80 120.5t124 78.5t160.5 28h147v-136zM164 360
q4 -50 18 -91t39.5 -70.5t64.5 -46t94 -16.5q48 0 82.5 9.5t57 26t33 37t10.5 43.5q0 51 -30.5 79.5t-73.5 28.5h-295z" />
    <glyph glyph-name="seven" unicode="7" horiz-adv-x="689" 
d="M195 1h-158l473 643h-461v136h520q52 0 81.5 -22t29.5 -58q0 -39 -30 -79z" />
    <glyph glyph-name="eight" unicode="8" horiz-adv-x="668" 
d="M634 232q0 -46 -18 -87.5t-54.5 -73t-92.5 -50.5t-132 -20q-79 1 -136 19.5t-94 49.5t-55 72.5t-18 89.5q0 24 5.5 50t18.5 50t34 44.5t52 34.5q-28 13 -46.5 32t-30 41.5t-16 47t-4.5 47.5q0 102 69 152t200 50h36q131 0 200 -50t69 -152q0 -24 -5 -48t-16.5 -46.5
t-30.5 -41.5t-46 -32q31 -14 52.5 -34.5t34.5 -44.5t18.5 -50t5.5 -50zM270 329q-45 0 -75 -24t-30 -73t44.5 -72t113.5 -23h21q69 0 113.5 23t44.5 72t-30 73t-75 24h-127zM323 646q-79 0 -113 -21t-34 -69t24.5 -70t69.5 -22h127q45 0 70 22t25 70t-34.5 69t-113.5 21h-21
z" />
    <glyph glyph-name="nine" unicode="9" horiz-adv-x="713" 
d="M143 135h147q58 0 97.5 10.5t67 31t45.5 50t33 67.5h-278q-108 0 -167.5 59.5t-59.5 173.5q0 52 17 98t54.5 80t98.5 54t149 20q65 0 125.5 -25.5t107 -75.5t74.5 -124.5t28 -172.5q0 -85 -28.5 -155t-80 -120.5t-123.5 -78.5t-160 -28h-147v136zM548 419q-4 50 -18 91
t-40 70.5t-65 46t-93 16.5q-48 0 -82.5 -9.5t-57 -26t-33 -37.5t-10.5 -43q0 -51 29.5 -79.5t74.5 -28.5h295z" />
    <glyph glyph-name="colon" unicode=":" horiz-adv-x="207" 
d="M33 184q0 33 20.5 51t48.5 18t48.5 -18t20.5 -51q0 -32 -20.5 -50.5t-48.5 -18.5t-48.5 18.5t-20.5 50.5zM33 540q0 33 20.5 51t48.5 18t48.5 -18t20.5 -51q0 -32 -20.5 -50.5t-48.5 -18.5t-48.5 18.5t-20.5 50.5z" />
    <glyph glyph-name="semicolon" unicode=";" horiz-adv-x="219" 
d="M25 -28l33 257h135l-90 -257h-78zM62 514q0 33 20.5 51t49.5 18t49.5 -18t20.5 -51q0 -32 -20.5 -50.5t-50.5 -18.5q-28 0 -48.5 18.5t-20.5 50.5z" />
    <glyph glyph-name="less" unicode="&#x3c;" horiz-adv-x="851" 
d="M81 292q-55 18 -55 64t55 65l743 251v-143l-510 -173l510 -173v-142z" />
    <glyph glyph-name="equal" unicode="=" horiz-adv-x="526" 
d="M43 216v125h457v-125h-457zM43 432v125h457v-125h-457z" />
    <glyph glyph-name="greater" unicode="&#x3e;" horiz-adv-x="844" 
d="M43 41v142l510 173l-510 173v143l743 -251q55 -19 55 -65t-55 -64z" />
    <glyph glyph-name="question" unicode="?" horiz-adv-x="569" 
d="M86 66q0 33 21 51t49 18t49 -18t21 -51q0 -32 -21 -50.5t-49 -18.5q-29 0 -49.5 18.5t-20.5 50.5zM35 780h291q52 0 95 -16.5t73.5 -46t47 -70t16.5 -88.5t-16.5 -88t-47.5 -69.5t-75.5 -46t-100.5 -16.5h-93v-112h-136v180q0 27 20 47t48 20h144q58 0 93 25t35 61
q0 35 -33.5 59.5t-94.5 24.5h-266v136z" />
    <glyph glyph-name="at" unicode="@" horiz-adv-x="852" 
d="M587 780q50 0 91.5 -11.5t71.5 -35.5t46.5 -61.5t16.5 -89.5v-160q0 -44 -17 -74.5t-43 -49.5t-57.5 -28t-60.5 -9h-163q-94 0 -140 36.5t-46 105.5v44q0 37 29 64.5t78 27.5h109q108 0 108 -92v-87h24q31 0 51.5 17t20.5 42v129q0 40 -34 68t-106 28h-183
q-96 0 -149.5 -26.5t-53.5 -78.5v-300q0 -23 9.5 -41.5t30.5 -32.5t55 -21.5t83 -7.5h425v-136h-440q-83 0 -140.5 12.5t-93.5 37.5t-52.5 61t-16.5 84v379q0 57 21 96.5t62 63.5t100.5 35t137.5 11h226zM393 456v-37q0 -25 17 -42t62 -17h36v96h-115z" />
    <glyph glyph-name="A" unicode="A" 
d="M483 745q14 22 34.5 31.5t43.5 9.5q26 0 41.5 -18.5t15.5 -49.5v-718h-135v527l-334 -527h-162z" />
    <glyph glyph-name="B" unicode="B" horiz-adv-x="622" 
d="M179 646v-509h119q70 0 114.5 23t44.5 72t-30 73t-75 24h-94v135h94q45 0 69.5 22t24.5 70t-33.5 69t-114.5 21h-119zM477 411q31 -14 52.5 -34.5t34.5 -44.5t18.5 -50t5.5 -50q0 -48 -18.5 -90t-57 -73.5t-97 -49.5t-138.5 -18h-234v780h263q131 0 200 -50t69 -152
q0 -23 -5 -47.5t-16 -47t-30 -41.5t-47 -32z" />
    <glyph glyph-name="C" unicode="C" horiz-adv-x="549" 
d="M418 0q-87 0 -159.5 30.5t-124 84t-80.5 126.5t-29 157q0 85 28.5 155t80 120.5t124 78.5t160.5 28h114v-136h-114q-56 0 -103.5 -19.5t-82 -53.5t-54 -81.5t-19.5 -102.5t19 -101t53 -79.5t82 -52t105 -18.5h114v-136h-114z" />
    <glyph glyph-name="D" unicode="D" horiz-adv-x="688" 
d="M43 0v780h224q87 0 159 -28t124 -78.5t81 -120.5t29 -155q0 -84 -29.5 -157t-81.5 -126.5t-124.5 -84t-157.5 -30.5h-224zM179 644v-508h88q58 0 105 19t81 52.5t52.5 79.5t18.5 100q0 55 -19 102.5t-53 81.5t-81.5 53.5t-103.5 19.5h-88z" />
    <glyph glyph-name="E" unicode="E" horiz-adv-x="451" 
d="M430 0h-387v780h381v-136h-245v-181h211v-135h-211v-192h251v-136z" />
    <glyph glyph-name="F" unicode="F" horiz-adv-x="410" 
d="M398 644h-219v-203h184v-136h-184v-305h-136v780h355v-136z" />
    <glyph glyph-name="G" unicode="G" horiz-adv-x="627" 
d="M588 463v-463h-169q-87 0 -159 30.5t-124 84t-81 126.5t-29 157q0 85 28.5 155t80 120.5t124 78.5t160.5 28h114v-136h-114q-56 0 -103 -19.5t-81.5 -53.5t-54 -81.5t-19.5 -102.5t19 -101t53 -79.5t81.5 -52t104.5 -18.5h41v192h-182v135h310z" />
    <glyph glyph-name="H" unicode="H" horiz-adv-x="590" 
d="M179 0h-136v780h136v-317h231v317h136v-780h-136v327h-231v-327z" />
    <glyph glyph-name="I" unicode="I" horiz-adv-x="225" 
d="M43 0v780h136v-780h-136z" />
    <glyph glyph-name="J" unicode="J" horiz-adv-x="443" 
d="M8 0v136h67q103 0 149.5 51t46.5 165v428h136v-428q0 -181 -84.5 -266.5t-247.5 -85.5h-67z" />
    <glyph glyph-name="K" unicode="K" horiz-adv-x="738" 
d="M361 315l-182 -280q-14 -23 -34.5 -31.5t-43.5 -8.5q-26 0 -42 18t-16 49v718h136v-527l334 527h162l-233 -344l318 -436h-184z" />
    <glyph glyph-name="L" unicode="L" horiz-adv-x="395" 
d="M36 0v780h135v-644h212v-136h-347z" />
    <glyph glyph-name="M" unicode="M" horiz-adv-x="1136" 
d="M487 745q14 22 35 31.5t43 9.5q26 0 42 -18.5t16 -49.5v-475l334 502q14 22 34.5 31.5t43.5 9.5q26 0 42 -18.5t16 -49.5v-718h-136v527l-304 -480q-17 -27 -37 -37t-41 -10q-18 0 -34 6.5t-28 18.5t-19 28t-7 36v438l-334 -527h-162z" />
    <glyph glyph-name="N" unicode="N" horiz-adv-x="737" 
d="M174 541v-541h-131v712q0 31 17 49.5t49 18.5q20 0 37.5 -8.5t35.5 -31.5l381 -501v541h130v-713q0 -75 -51 -75q-25 0 -44 11.5t-42 35.5z" />
    <glyph glyph-name="O" unicode="O" horiz-adv-x="871" 
d="M424 0q-86 0 -158.5 30.5t-124.5 84.5t-81 126.5t-29 156.5t28.5 154t80 121t124 79t160.5 28h23q89 0 161.5 -28.5t124 -79.5t79.5 -121t28 -153q0 -84 -29 -156.5t-81.5 -126.5t-124.5 -84.5t-158 -30.5h-23zM424 644q-56 0 -103 -19t-81.5 -53t-54 -81t-19.5 -104
q0 -55 19 -101t53 -79.5t81.5 -52t104.5 -18.5h23q58 0 105.5 19t81.5 52.5t52.5 79.5t18.5 100q0 56 -19 103t-53.5 81.5t-82 53.5t-103.5 19h-23z" />
    <glyph glyph-name="P" unicode="P" horiz-adv-x="601" 
d="M298 355q36 0 65.5 11t50.5 30.5t32.5 46t11.5 57.5t-11.5 57.5t-32.5 46t-50.5 30t-65.5 10.5h-119v-289h119zM179 219v-219h-136v780h259q67 0 120 -21.5t90 -59t57 -89t20 -111.5t-20 -111.5t-57.5 -89t-90.5 -58.5t-119 -21h-123z" />
    <glyph glyph-name="Q" unicode="Q" horiz-adv-x="870" 
d="M421 644q-56 0 -103 -19.5t-81.5 -53.5t-54 -81.5t-19.5 -102.5t19 -101t53 -79.5t81.5 -52t104.5 -18.5h23q40 0 52 4l-95 95l111 84l117 -113q73 72 73 181q0 57 -19.5 104.5t-54 81t-82 52.5t-102.5 19h-23zM790 48l-113 -84l-72 66q-65 -30 -161 -30h-23
q-87 0 -159 31t-124 85t-81 126.5t-29 155.5q0 85 28.5 155t80 120.5t124 78.5t160.5 28h23q88 0 160 -28t124 -79t80.5 -121t28.5 -154q0 -171 -112 -286z" />
    <glyph glyph-name="R" unicode="R" horiz-adv-x="656" 
d="M624 0h-190l-207 219q-18 19 -27.5 36t-9.5 34q0 64 81 70q109 8 161.5 43.5t52.5 107.5q0 67 -40.5 100.5t-115.5 33.5h-150v-644h-136v780h289q61 0 115 -17.5t93.5 -51t62.5 -83.5t23 -115q0 -39 -12 -80t-40 -77t-74 -63.5t-115 -38.5z" />
    <glyph glyph-name="S" unicode="S" horiz-adv-x="622" 
d="M49 0v136h273q63 0 104 30t41 78q0 24 -11 44t-30 34.5t-46 22.5t-58 8h-62q-48 0 -89 15.5t-71 44t-47 67t-17 85.5q0 46 17.5 85t49.5 68t77 45.5t99 16.5h259v-136h-266q-43 0 -68 -23.5t-25 -56.5q0 -36 25.5 -60t67.5 -24h77q52 0 96 -17.5t76 -49.5t50 -76t18 -96
q0 -53 -19 -97t-54.5 -76t-84.5 -50t-109 -18h-273z" />
    <glyph glyph-name="T" unicode="T" horiz-adv-x="551" 
d="M344 644v-644h-136v644h-199v136h534v-136h-199z" />
    <glyph glyph-name="U" unicode="U" horiz-adv-x="700" 
d="M661 780v-428q0 -170 -78.5 -261t-220.5 -91h-26q-143 0 -220.5 90.5t-77.5 261.5v428h136v-428q0 -62 9 -103t28.5 -66.5t50 -36t74.5 -10.5h26q43 0 74 11t51 36t29 66.5t9 102.5v428h136z" />
    <glyph glyph-name="V" unicode="V" horiz-adv-x="660" 
d="M-15 780h161l335 -527v527h135v-718q0 -31 -15.5 -49t-41.5 -18q-23 0 -43.5 9t-34.5 31z" />
    <glyph glyph-name="W" unicode="W" horiz-adv-x="1123" 
d="M-22 780h162l334 -527v438q0 19 7 35.5t19 28.5t28 18.5t34 6.5q21 0 41 -9.5t37 -37.5l304 -480v527h136v-718q0 -31 -16 -49t-42 -18q-23 0 -43.5 9t-34.5 31l-334 502v-475q0 -31 -16 -49t-42 -18q-23 0 -43.5 9t-34.5 31z" />
    <glyph glyph-name="X" unicode="X" horiz-adv-x="604" 
d="M224 432l-194 348h156l115 -226l115 226h155l-195 -363l227 -417h-149l-153 292l-153 -292h-150z" />
    <glyph glyph-name="Y" unicode="Y" horiz-adv-x="673" 
d="M648 780v-205q0 -153 -64 -242t-181 -106v-227h-136v228q-117 17 -179.5 105.5t-62.5 241.5v205h136v-205q0 -61 9 -102t28.5 -66.5t50 -36.5t74.5 -11h26q43 0 74 11t51 36.5t29 67t9 101.5v205h136z" />
    <glyph glyph-name="Z" unicode="Z" horiz-adv-x="603" 
d="M126 0q-104 0 -104 64q0 28 26 69l326 511h-334v136h415q48 0 77.5 -20.5t29.5 -54.5q0 -29 -19 -58l-327 -511h335v-136h-425z" />
    <glyph glyph-name="bracketleft" unicode="[" horiz-adv-x="634" 
d="M162 35q-16 -22 -36 -31t-42 -9q-26 0 -42 18t-16 49v718h136v-527l334 527h162z" />
    <glyph glyph-name="backslash" unicode="\" horiz-adv-x="450" 
d="M379 -1l-376 781h63l381 -781h-68z" />
    <glyph glyph-name="bracketright" unicode="]" horiz-adv-x="1103" 
d="M631 35q-15 -22 -36 -31t-42 -9q-26 0 -41.5 18t-15.5 49v475l-334 -502q-16 -22 -36 -31t-42 -9q-26 0 -42 18t-16 49v718h136v-527l303 480q17 28 37.5 37.5t41.5 9.5q17 0 32.5 -6.5t27.5 -18.5t19.5 -28.5t7.5 -35.5v-438l335 527h161z" />
    <glyph glyph-name="asciicircum" unicode="^" horiz-adv-x="700" 
d="M525 0v429q0 60 -9 101t-29 66.5t-51 36.5t-74 11h-26q-44 0 -74.5 -11t-50 -36t-28.5 -66t-9 -102v-429h-136v429q0 170 77.5 260.5t220.5 90.5h26q142 0 220.5 -91t78.5 -260v-429h-136z" />
    <glyph glyph-name="underscore" unicode="_" horiz-adv-x="614" 
d="M-28 -26v82h663v-82h-663z" />
    <glyph glyph-name="grave" unicode="`" horiz-adv-x="169" 
d="M-48 921h114l59 -105h-81z" />
    <glyph glyph-name="a" unicode="a" 
d="M0 0zM483 745q14 22 34.5 31.5t43.5 9.5q26 0 41.5 -18.5t15.5 -49.5v-718h-135v527l-334 -527h-162z" />
    <glyph glyph-name="b" unicode="b" horiz-adv-x="622" 
d="M43 1zM179 646v-509h119q70 0 114.5 23t44.5 72t-30 73t-75 24h-94v135h94q45 0 69.5 22t24.5 70t-33.5 69t-114.5 21h-119zM477 411q31 -14 52.5 -34.5t34.5 -44.5t18.5 -50t5.5 -50q0 -48 -18.5 -90t-57 -73.5t-97 -49.5t-138.5 -18h-234v780h263q131 0 200 -50
t69 -152q0 -23 -5 -47.5t-16 -47t-30 -41.5t-47 -32z" />
    <glyph glyph-name="c" unicode="c" horiz-adv-x="549" 
d="M25 0zM418 0q-87 0 -159.5 30.5t-124 84t-80.5 126.5t-29 157q0 85 28.5 155t80 120.5t124 78.5t160.5 28h114v-136h-114q-56 0 -103.5 -19.5t-82 -53.5t-54 -81.5t-19.5 -102.5t19 -101t53 -79.5t82 -52t105 -18.5h114v-136h-114z" />
    <glyph glyph-name="d" unicode="d" horiz-adv-x="688" 
d="M43 0zM43 0v780h224q87 0 159 -28t124 -78.5t81 -120.5t29 -155q0 -84 -29.5 -157t-81.5 -126.5t-124.5 -84t-157.5 -30.5h-224zM179 644v-508h88q58 0 105 19t81 52.5t52.5 79.5t18.5 100q0 55 -19 102.5t-53 81.5t-81.5 53.5t-103.5 19.5h-88z" />
    <glyph glyph-name="e" unicode="e" horiz-adv-x="451" 
d="M43 0zM430 0h-387v780h381v-136h-245v-181h211v-135h-211v-192h251v-136z" />
    <glyph glyph-name="f" unicode="f" horiz-adv-x="410" 
d="M43 0zM398 644h-219v-203h184v-136h-184v-305h-136v780h355v-136z" />
    <glyph glyph-name="g" unicode="g" horiz-adv-x="627" 
d="M26 0zM588 463v-463h-169q-87 0 -159 30.5t-124 84t-81 126.5t-29 157q0 85 28.5 155t80 120.5t124 78.5t160.5 28h114v-136h-114q-56 0 -103 -19.5t-81.5 -53.5t-54 -81.5t-19.5 -102.5t19 -101t53 -79.5t81.5 -52t104.5 -18.5h41v192h-182v135h310z" />
    <glyph glyph-name="h" unicode="h" horiz-adv-x="590" 
d="M43 0zM179 0h-136v780h136v-317h231v317h136v-780h-136v327h-231v-327z" />
    <glyph glyph-name="i" unicode="i" horiz-adv-x="225" 
d="M43 0zM43 0v780h136v-780h-136z" />
    <glyph glyph-name="j" unicode="j" horiz-adv-x="443" 
d="M8 0zM8 0v136h67q103 0 149.5 51t46.5 165v428h136v-428q0 -181 -84.5 -266.5t-247.5 -85.5h-67z" />
    <glyph glyph-name="k" unicode="k" horiz-adv-x="738" 
d="M43 0zM361 315l-182 -280q-14 -23 -34.5 -31.5t-43.5 -8.5q-26 0 -42 18t-16 49v718h136v-527l334 527h162l-233 -344l318 -436h-184z" />
    <glyph glyph-name="l" unicode="l" horiz-adv-x="395" 
d="M36 0zM36 0v780h135v-644h212v-136h-347z" />
    <glyph glyph-name="m" unicode="m" horiz-adv-x="1136" 
d="M0 0zM487 745q14 22 35 31.5t43 9.5q26 0 42 -18.5t16 -49.5v-475l334 502q14 22 34.5 31.5t43.5 9.5q26 0 42 -18.5t16 -49.5v-718h-136v527l-304 -480q-17 -27 -37 -37t-41 -10q-18 0 -34 6.5t-28 18.5t-19 28t-7 36v438l-334 -527h-162z" />
    <glyph glyph-name="n" unicode="n" horiz-adv-x="737" 
d="M43 0zM174 541v-541h-131v712q0 31 17 49.5t49 18.5q20 0 37.5 -8.5t35.5 -31.5l381 -501v541h130v-713q0 -75 -51 -75q-25 0 -44 11.5t-42 35.5z" />
    <glyph glyph-name="o" unicode="o" horiz-adv-x="871" 
d="M31 0zM424 0q-86 0 -158.5 30.5t-124.5 84.5t-81 126.5t-29 156.5t28.5 154t80 121t124 79t160.5 28h23q89 0 161.5 -28.5t124 -79.5t79.5 -121t28 -153q0 -84 -29 -156.5t-81.5 -126.5t-124.5 -84.5t-158 -30.5h-23zM424 644q-56 0 -103 -19t-81.5 -53t-54 -81
t-19.5 -104q0 -55 19 -101t53 -79.5t81.5 -52t104.5 -18.5h23q58 0 105.5 19t81.5 52.5t52.5 79.5t18.5 100q0 56 -19 103t-53.5 81.5t-82 53.5t-103.5 19h-23z" />
    <glyph glyph-name="p" unicode="p" horiz-adv-x="601" 
d="M43 0zM298 355q36 0 65.5 11t50.5 30.5t32.5 46t11.5 57.5t-11.5 57.5t-32.5 46t-50.5 30t-65.5 10.5h-119v-289h119zM179 219v-219h-136v780h259q67 0 120 -21.5t90 -59t57 -89t20 -111.5t-20 -111.5t-57.5 -89t-90.5 -58.5t-119 -21h-123z" />
    <glyph glyph-name="q" unicode="q" horiz-adv-x="870" 
d="M28 0zM421 644q-56 0 -103 -19.5t-81.5 -53.5t-54 -81.5t-19.5 -102.5t19 -101t53 -79.5t81.5 -52t104.5 -18.5h23q40 0 52 4l-95 95l111 84l117 -113q73 72 73 181q0 57 -19.5 104.5t-54 81t-82 52.5t-102.5 19h-23zM790 48l-113 -84l-72 66q-65 -30 -161 -30h-23
q-87 0 -159 31t-124 85t-81 126.5t-29 155.5q0 85 28.5 155t80 120.5t124 78.5t160.5 28h23q88 0 160 -28t124 -79t80.5 -121t28.5 -154q0 -171 -112 -286z" />
    <glyph glyph-name="r" unicode="r" horiz-adv-x="656" 
d="M43 0zM624 0h-190l-207 219q-18 19 -27.5 36t-9.5 34q0 64 81 70q109 8 161.5 43.5t52.5 107.5q0 67 -40.5 100.5t-115.5 33.5h-150v-644h-136v780h289q61 0 115 -17.5t93.5 -51t62.5 -83.5t23 -115q0 -39 -12 -80t-40 -77t-74 -63.5t-115 -38.5z" />
    <glyph glyph-name="s" unicode="s" horiz-adv-x="622" 
d="M36 0zM49 0v136h273q63 0 104 30t41 78q0 24 -11 44t-30 34.5t-46 22.5t-58 8h-62q-48 0 -89 15.5t-71 44t-47 67t-17 85.5q0 46 17.5 85t49.5 68t77 45.5t99 16.5h259v-136h-266q-43 0 -68 -23.5t-25 -56.5q0 -36 25.5 -60t67.5 -24h77q52 0 96 -17.5t76 -49.5t50 -76
t18 -96q0 -53 -19 -97t-54.5 -76t-84.5 -50t-109 -18h-273z" />
    <glyph glyph-name="t" unicode="t" horiz-adv-x="551" 
d="M9 0zM344 644v-644h-136v644h-199v136h534v-136h-199z" />
    <glyph glyph-name="u" unicode="u" horiz-adv-x="700" 
d="M38 0zM661 780v-428q0 -170 -78.5 -261t-220.5 -91h-26q-143 0 -220.5 90.5t-77.5 261.5v428h136v-428q0 -62 9 -103t28.5 -66.5t50 -36t74.5 -10.5h26q43 0 74 11t51 36t29 66.5t9 102.5v428h136z" />
    <glyph glyph-name="v" unicode="v" horiz-adv-x="660" 
d="M0 0zM-15 780h161l335 -527v527h135v-718q0 -31 -15.5 -49t-41.5 -18q-23 0 -43.5 9t-34.5 31z" />
    <glyph glyph-name="w" unicode="w" horiz-adv-x="1123" 
d="M0 0zM-22 780h162l334 -527v438q0 19 7 35.5t19 28.5t28 18.5t34 6.5q21 0 41 -9.5t37 -37.5l304 -480v527h136v-718q0 -31 -16 -49t-42 -18q-23 0 -43.5 9t-34.5 31l-334 502v-475q0 -31 -16 -49t-42 -18q-23 0 -43.5 9t-34.5 31z" />
    <glyph glyph-name="x" unicode="x" horiz-adv-x="604" 
d="M0 0zM224 432l-194 348h156l115 -226l115 226h155l-195 -363l227 -417h-149l-153 292l-153 -292h-150z" />
    <glyph glyph-name="y" unicode="y" horiz-adv-x="673" 
d="M25 0zM648 780v-205q0 -153 -64 -242t-181 -106v-227h-136v228q-117 17 -179.5 105.5t-62.5 241.5v205h136v-205q0 -61 9 -102t28.5 -66.5t50 -36.5t74.5 -11h26q43 0 74 11t51 36.5t29 67t9 101.5v205h136z" />
    <glyph glyph-name="z" unicode="z" horiz-adv-x="603" 
d="M22 0zM126 0q-104 0 -104 64q0 28 26 69l326 511h-334v136h415q48 0 77.5 -20.5t29.5 -54.5q0 -29 -19 -58l-327 -511h335v-136h-425z" />
    <glyph glyph-name="braceleft" unicode="{" horiz-adv-x="634" 
d="M658 0h-162l-334 527v-527h-136v718q0 31 16 49.5t42 18.5q22 0 42 -9.5t36 -31.5z" />
    <glyph glyph-name="bar" unicode="|" horiz-adv-x="153" 
d="M43 -241v1121h60v-1121h-60z" />
    <glyph glyph-name="braceright" unicode="}" horiz-adv-x="1103" 
d="M1127 0h-161l-335 527v-438q0 -20 -7.5 -36t-19.5 -28t-27.5 -18.5t-32.5 -6.5q-20 0 -41 10t-38 37l-303 480v-527h-136v718q0 31 16 49.5t42 18.5q22 0 42 -9.5t36 -31.5l334 -502v475q0 31 15.5 49.5t41.5 18.5q21 0 42 -9.5t36 -31.5z" />
    <glyph glyph-name="exclamdown" unicode="&#xa1;" horiz-adv-x="213" 
d="M175 711q0 -33 -21 -51t-49 -18t-49 18t-21 51q0 32 21 50.5t49 18.5t49 -18.5t21 -50.5zM153 545l22 -548h-136l22 548h92z" />
    <glyph glyph-name="sterling" unicode="&#xa3;" horiz-adv-x="647" 
d="M16 328v135h77q9 154 85 235.5t213 81.5h26q117 0 190 -64l-96 -93q-36 21 -94 21h-26q-41 0 -70.5 -9.5t-49.5 -30.5t-30.5 -55.5t-12.5 -85.5h242v-135h-242v-193h379v-136h-590v136h75v193h-76z" />
    <glyph glyph-name="yen" unicode="&#xa5;" horiz-adv-x="673" 
d="M122 107v103h145v72q-117 17 -179.5 105.5t-62.5 241.5v151h136v-151q0 -60 9 -101.5t28.5 -67t50 -36.5t74.5 -11h26q43 0 74 11t51 36.5t29 67t9 101.5v151h136v-151q0 -153 -64 -242t-181 -106v-71h143v-103h-143v-107h-136v107h-145z" />
    <glyph glyph-name="dieresis" unicode="&#xa8;" horiz-adv-x="365" 
d="M107 829q-21 0 -34.5 14.5t-13.5 35.5q0 22 13.5 36t34.5 14t35.5 -14t14.5 -36q0 -21 -14.5 -35.5t-35.5 -14.5zM257 829q-19 0 -34 14.5t-15 35.5q0 22 15 36t34 14q22 0 35.5 -14t13.5 -36q0 -21 -13.5 -35.5t-35.5 -14.5z" />
    <glyph glyph-name="copyright" unicode="&#xa9;" horiz-adv-x="856" 
d="M421 791q83 0 156 -32t127.5 -86.5t86 -127.5t31.5 -155q0 -83 -31.5 -155.5t-86 -127.5t-127.5 -86.5t-156 -31.5q-82 0 -155 31.5t-127.5 86.5t-86 127.5t-31.5 155.5q0 82 31.5 155t86 127.5t127.5 86.5t155 32zM423 745q-74 0 -138.5 -28t-112.5 -76.5t-76 -113.5
t-28 -139q0 -73 28 -137.5t76 -112.5t112.5 -76t138.5 -28q73 0 138 28t113.5 76t76.5 112.5t28 137.5q0 74 -28 139t-76.5 113.5t-113.5 76.5t-138 28zM431 139q-56 0 -103 20t-81 54.5t-52.5 82t-18.5 101.5q0 55 18.5 100.5t52 78t80.5 50.5t104 18h74v-87h-74
q-36 0 -67 -12.5t-53.5 -35t-35 -53t-12.5 -66.5t12 -66t34 -51.5t53 -33.5t69 -12h74v-88h-74z" />
    <glyph glyph-name="guillemotleft" unicode="&#xab;" horiz-adv-x="406" 
d="M89 399l103 -73v-94l-157 120v91l157 124v-95zM260 399l102 -73v-94l-156 120v91l156 124v-95z" />
    <glyph glyph-name="registered" unicode="&#xae;" horiz-adv-x="487" 
d="M242 764q-41 0 -73.5 -14.5t-55.5 -38.5t-35 -54t-12 -60q0 -32 12 -62t35 -53.5t55.5 -38t73.5 -14.5q38 0 72 13t59.5 35.5t40.5 53t15 66.5q0 30 -14.5 60t-39.5 54t-59 38.5t-74 14.5zM243 794q46 0 85 -15t67.5 -41.5t44.5 -62.5t16 -78q0 -39 -16.5 -75t-45 -63
t-67.5 -43t-84 -16q-46 0 -84.5 16t-66 43t-43 63t-15.5 75q0 40 15.5 76t43 63t66 42.5t84.5 15.5zM220 658v-49h35q23 0 23 22q0 27 -23 27h-35zM242 564h-22v-78h-43v214h77q29 0 48 -17.5t19 -51.5q0 -20 -8.5 -33.5t-27.5 -25.5l38 -86h-45z" />
    <glyph glyph-name="acute" unicode="&#xb4;" horiz-adv-x="168" 
d="M118 818h-82l60 105h114z" />
    <glyph glyph-name="paragraph" unicode="&#xb6;" horiz-adv-x="615" 
d="M436 745q14 22 35.5 31.5t42.5 9.5q26 0 42 -18.5t16 -49.5v-718h-136v527l-248 -391h126v-136h-224q-40 0 -61.5 24t-21.5 53q0 23 11 40z" />
    <glyph glyph-name="cedilla" unicode="&#xb8;" horiz-adv-x="196" 
d="M30 -241l22 187h136l-65 -187h-93z" />
    <glyph glyph-name="guillemotright" unicode="&#xbb;" horiz-adv-x="406" 
d="M35 472v95l156 -124v-91l-156 -120v94l102 73zM205 472v95l157 -124v-91l-157 -120v94l103 73z" />
    <glyph glyph-name="questiondown" unicode="&#xbf;" horiz-adv-x="570" 
d="M483 711q0 -33 -21 -51t-50 -18q-28 0 -48.5 18t-20.5 51q0 32 20.5 50.5t48.5 18.5q30 0 50.5 -18.5t20.5 -50.5zM534 -3h-291q-53 0 -96 16.5t-73 46t-46.5 70t-16.5 88.5t16 88t47 69.5t75.5 46t101.5 16.5h93v112h136v-180q0 -27 -20.5 -47t-48.5 -20h-143
q-60 0 -94 -25t-34 -61q0 -35 32.5 -60t95.5 -25h266v-135z" />
    <glyph glyph-name="Agrave" unicode="&#xc0;" 
d="M0 0zM483 745q14 22 34.5 31.5t43.5 9.5q26 0 41.5 -18.5t15.5 -49.5v-718h-135v527l-334 -527h-162zM426 922h114l59 -105h-81z" />
    <glyph glyph-name="Aacute" unicode="&#xc1;" 
d="M0 0zM483 745q14 22 34.5 31.5t43.5 9.5q26 0 41.5 -18.5t15.5 -49.5v-718h-135v527l-334 -527h-162zM565 819h-82l60 105h114z" />
    <glyph glyph-name="Acircumflex" unicode="&#xc2;" 
d="M0 0zM483 745q14 22 34.5 31.5t43.5 9.5q26 0 41.5 -18.5t15.5 -49.5v-718h-135v527l-334 -527h-162zM570 899l-53 -70h-97l88 104h124l90 -104h-98z" />
    <glyph glyph-name="Atilde" unicode="&#xc3;" 
d="M0 0zM483 745q14 22 34.5 31.5t43.5 9.5q26 0 41.5 -18.5t15.5 -49.5v-718h-135v527l-334 -527h-162zM689 872q-19 -52 -80 -52q-15 0 -26.5 5t-22 10.5t-21.5 10.5t-23 5q-13 0 -26 -8t-26 -28l-38 42q16 30 36 43t45 13q20 0 32.5 -4.5t22.5 -10t20 -10t24 -4.5
q33 0 49 37z" />
    <glyph glyph-name="Adieresis" unicode="&#xc4;" 
d="M0 0zM483 745q14 22 34.5 31.5t43.5 9.5q26 0 41.5 -18.5t15.5 -49.5v-718h-135v527l-334 -527h-162zM480 830q-21 0 -34.5 14.5t-13.5 35.5q0 22 13.5 36t34.5 14t35.5 -14t14.5 -36q0 -21 -14.5 -35.5t-35.5 -14.5zM630 830q-19 0 -34 14.5t-15 35.5q0 22 15 36t34 14
q22 0 35.5 -14t13.5 -36q0 -21 -13.5 -35.5t-35.5 -14.5z" />
    <glyph glyph-name="Aring" unicode="&#xc5;" 
d="M0 0zM483 745q14 22 34.5 31.5t43.5 9.5q26 0 41.5 -18.5t15.5 -49.5v-718h-135v527l-334 -527h-162zM571 930q-15 0 -27 -10.5t-12 -29.5t12 -30t27 -11t27.5 11t12.5 30t-12.5 29.5t-27.5 10.5zM571 825q-29 0 -47.5 18t-18.5 47t18.5 49t47.5 20q28 0 47 -20.5
t19 -48.5q0 -29 -19 -47t-47 -18z" />
    <glyph glyph-name="AE" unicode="&#xc6;" horiz-adv-x="902" 
d="M869 0h-391v527l-334 -527h-161l495 745q16 22 36 28.5t43 6.5h307v-136h-246v-181h211v-135h-211v-192h251v-136z" />
    <glyph glyph-name="Ccedilla" unicode="&#xc7;" horiz-adv-x="549" 
d="M25 0zM418 0q-87 0 -159.5 30.5t-124 84t-80.5 126.5t-29 157q0 85 28.5 155t80 120.5t124 78.5t160.5 28h114v-136h-114q-56 0 -103.5 -19.5t-82 -53.5t-54 -81.5t-19.5 -102.5t19 -101t53 -79.5t82 -52t105 -18.5h114v-136h-114zM250 -241l22 187h136l-65 -187h-93z
" />
    <glyph glyph-name="Egrave" unicode="&#xc8;" horiz-adv-x="451" 
d="M43 0zM430 0h-387v780h381v-136h-245v-181h211v-135h-211v-192h251v-136zM156 922h114l59 -105h-81z" />
    <glyph glyph-name="Eacute" unicode="&#xc9;" horiz-adv-x="451" 
d="M43 0zM430 0h-387v780h381v-136h-245v-181h211v-135h-211v-192h251v-136zM246 819h-82l60 105h114z" />
    <glyph glyph-name="Ecircumflex" unicode="&#xca;" horiz-adv-x="451" 
d="M43 0zM430 0h-387v780h381v-136h-245v-181h211v-135h-211v-192h251v-136zM243 899l-53 -70h-97l88 104h124l90 -104h-98z" />
    <glyph glyph-name="Edieresis" unicode="&#xcb;" horiz-adv-x="451" 
d="M43 0zM430 0h-387v780h381v-136h-245v-181h211v-135h-211v-192h251v-136zM180 830q-21 0 -34.5 14.5t-13.5 35.5q0 22 13.5 36t34.5 14t35.5 -14t14.5 -36q0 -21 -14.5 -35.5t-35.5 -14.5zM330 830q-19 0 -34 14.5t-15 35.5q0 22 15 36t34 14q22 0 35.5 -14t13.5 -36
q0 -21 -13.5 -35.5t-35.5 -14.5z" />
    <glyph glyph-name="Igrave" unicode="&#xcc;" horiz-adv-x="225" 
d="M4 0zM43 0v780h136v-780h-136zM4 922h114l59 -105h-81z" />
    <glyph glyph-name="Iacute" unicode="&#xcd;" horiz-adv-x="225" 
d="M43 0zM43 0v780h136v-780h-136zM126 819h-82l60 105h114z" />
    <glyph glyph-name="Icircumflex" unicode="&#xce;" horiz-adv-x="225" 
d="M0 0zM43 0v780h136v-780h-136zM115 899l-53 -70h-97l88 104h124l90 -104h-98z" />
    <glyph glyph-name="Idieresis" unicode="&#xcf;" horiz-adv-x="225" 
d="M0 0zM43 0v780h136v-780h-136zM41 830q-21 0 -34.5 14.5t-13.5 35.5q0 22 13.5 36t34.5 14t35.5 -14t14.5 -36q0 -21 -14.5 -35.5t-35.5 -14.5zM191 830q-19 0 -34 14.5t-15 35.5q0 22 15 36t34 14q22 0 35.5 -14t13.5 -36q0 -21 -13.5 -35.5t-35.5 -14.5z" />
    <glyph glyph-name="Eth" unicode="&#xd0;" horiz-adv-x="688" 
d="M43 0v780h224q87 0 159 -28t124 -78.5t81 -120.5t29 -155q0 -84 -29.5 -157t-81.5 -126.5t-124.5 -84t-157.5 -30.5h-224zM179 644v-181h182v-135h-182v-192h88q58 0 105 19t81 52.5t52.5 79.5t18.5 100q0 55 -19 102.5t-53 81.5t-81.5 53.5t-103.5 19.5h-88z" />
    <glyph glyph-name="Ntilde" unicode="&#xd1;" horiz-adv-x="737" 
d="M43 0zM174 541v-541h-131v712q0 31 17 49.5t49 18.5q20 0 37.5 -8.5t35.5 -31.5l381 -501v541h130v-713q0 -75 -51 -75q-25 0 -44 11.5t-42 35.5zM500 872q-19 -52 -80 -52q-15 0 -26.5 5t-22 10.5t-21.5 10.5t-23 5q-13 0 -26 -8t-26 -28l-38 42q16 30 36 43t45 13
q20 0 32.5 -4.5t22.5 -10t20 -10t24 -4.5q33 0 49 37z" />
    <glyph glyph-name="Ograve" unicode="&#xd2;" horiz-adv-x="871" 
d="M31 0zM424 0q-86 0 -158.5 30.5t-124.5 84.5t-81 126.5t-29 156.5t28.5 154t80 121t124 79t160.5 28h23q89 0 161.5 -28.5t124 -79.5t79.5 -121t28 -153q0 -84 -29 -156.5t-81.5 -126.5t-124.5 -84.5t-158 -30.5h-23zM424 644q-56 0 -103 -19t-81.5 -53t-54 -81
t-19.5 -104q0 -55 19 -101t53 -79.5t81.5 -52t104.5 -18.5h23q58 0 105.5 19t81.5 52.5t52.5 79.5t18.5 100q0 56 -19 103t-53.5 81.5t-82 53.5t-103.5 19h-23zM349 922h114l59 -105h-81z" />
    <glyph glyph-name="Oacute" unicode="&#xd3;" horiz-adv-x="871" 
d="M31 0zM424 0q-86 0 -158.5 30.5t-124.5 84.5t-81 126.5t-29 156.5t28.5 154t80 121t124 79t160.5 28h23q89 0 161.5 -28.5t124 -79.5t79.5 -121t28 -153q0 -84 -29 -156.5t-81.5 -126.5t-124.5 -84.5t-158 -30.5h-23zM424 644q-56 0 -103 -19t-81.5 -53t-54 -81
t-19.5 -104q0 -55 19 -101t53 -79.5t81.5 -52t104.5 -18.5h23q58 0 105.5 19t81.5 52.5t52.5 79.5t18.5 100q0 56 -19 103t-53.5 81.5t-82 53.5t-103.5 19h-23zM430 819h-82l60 105h114z" />
    <glyph glyph-name="Ocircumflex" unicode="&#xd4;" horiz-adv-x="871" 
d="M31 0zM424 0q-86 0 -158.5 30.5t-124.5 84.5t-81 126.5t-29 156.5t28.5 154t80 121t124 79t160.5 28h23q89 0 161.5 -28.5t124 -79.5t79.5 -121t28 -153q0 -84 -29 -156.5t-81.5 -126.5t-124.5 -84.5t-158 -30.5h-23zM424 644q-56 0 -103 -19t-81.5 -53t-54 -81
t-19.5 -104q0 -55 19 -101t53 -79.5t81.5 -52t104.5 -18.5h23q58 0 105.5 19t81.5 52.5t52.5 79.5t18.5 100q0 56 -19 103t-53.5 81.5t-82 53.5t-103.5 19h-23zM435 899l-53 -70h-97l88 104h124l90 -104h-98z" />
    <glyph glyph-name="Otilde" unicode="&#xd5;" horiz-adv-x="871" 
d="M31 0zM424 0q-86 0 -158.5 30.5t-124.5 84.5t-81 126.5t-29 156.5t28.5 154t80 121t124 79t160.5 28h23q89 0 161.5 -28.5t124 -79.5t79.5 -121t28 -153q0 -84 -29 -156.5t-81.5 -126.5t-124.5 -84.5t-158 -30.5h-23zM424 644q-56 0 -103 -19t-81.5 -53t-54 -81
t-19.5 -104q0 -55 19 -101t53 -79.5t81.5 -52t104.5 -18.5h23q58 0 105.5 19t81.5 52.5t52.5 79.5t18.5 100q0 56 -19 103t-53.5 81.5t-82 53.5t-103.5 19h-23zM567 872q-19 -52 -80 -52q-15 0 -26.5 5t-22 10.5t-21.5 10.5t-23 5q-13 0 -26 -8t-26 -28l-38 42q16 30 36 43
t45 13q20 0 32.5 -4.5t22.5 -10t20 -10t24 -4.5q33 0 49 37z" />
    <glyph glyph-name="Odieresis" unicode="&#xd6;" horiz-adv-x="871" 
d="M31 0zM424 0q-86 0 -158.5 30.5t-124.5 84.5t-81 126.5t-29 156.5t28.5 154t80 121t124 79t160.5 28h23q89 0 161.5 -28.5t124 -79.5t79.5 -121t28 -153q0 -84 -29 -156.5t-81.5 -126.5t-124.5 -84.5t-158 -30.5h-23zM424 644q-56 0 -103 -19t-81.5 -53t-54 -81
t-19.5 -104q0 -55 19 -101t53 -79.5t81.5 -52t104.5 -18.5h23q58 0 105.5 19t81.5 52.5t52.5 79.5t18.5 100q0 56 -19 103t-53.5 81.5t-82 53.5t-103.5 19h-23zM360 830q-21 0 -34.5 14.5t-13.5 35.5q0 22 13.5 36t34.5 14t35.5 -14t14.5 -36q0 -21 -14.5 -35.5t-35.5 -14.5
zM510 830q-19 0 -34 14.5t-15 35.5q0 22 15 36t34 14q22 0 35.5 -14t13.5 -36q0 -21 -13.5 -35.5t-35.5 -14.5z" />
    <glyph glyph-name="Oslash" unicode="&#xd8;" horiz-adv-x="871" 
d="M214 -1l20 43q-49 27 -87 65t-63.5 84.5t-39 98.5t-13.5 108q0 84 28.5 154t80 121t124 79t160.5 28h23q77 0 138 -19l10 19h63l-20 -40q99 -48 150.5 -139t51.5 -203q0 -84 -29 -156.5t-81.5 -126.5t-124.5 -84.5t-158 -30.5h-23q-71 0 -132 18l-10 -19h-68zM424 644
q-56 0 -103 -19t-81.5 -53t-54 -81t-19.5 -104q0 -72 33 -132t95 -91l229 471q-35 9 -76 9h-23zM447 136q58 0 105.5 19t81.5 52.5t52.5 79.5t18.5 100q0 74 -32.5 133.5t-95.5 92.5l-225 -470q31 -7 72 -7h23z" />
    <glyph glyph-name="Ugrave" unicode="&#xd9;" horiz-adv-x="700" 
d="M38 0zM661 780v-428q0 -170 -78.5 -261t-220.5 -91h-26q-143 0 -220.5 90.5t-77.5 261.5v428h136v-428q0 -62 9 -103t28.5 -66.5t50 -36t74.5 -10.5h26q43 0 74 11t51 36t29 66.5t9 102.5v428h136zM263 922h114l59 -105h-81z" />
    <glyph glyph-name="Uacute" unicode="&#xda;" horiz-adv-x="700" 
d="M38 0zM661 780v-428q0 -170 -78.5 -261t-220.5 -91h-26q-143 0 -220.5 90.5t-77.5 261.5v428h136v-428q0 -62 9 -103t28.5 -66.5t50 -36t74.5 -10.5h26q43 0 74 11t51 36t29 66.5t9 102.5v428h136zM345 819h-82l60 105h114z" />
    <glyph glyph-name="Ucircumflex" unicode="&#xdb;" horiz-adv-x="700" 
d="M38 0zM661 780v-428q0 -170 -78.5 -261t-220.5 -91h-26q-143 0 -220.5 90.5t-77.5 261.5v428h136v-428q0 -62 9 -103t28.5 -66.5t50 -36t74.5 -10.5h26q43 0 74 11t51 36t29 66.5t9 102.5v428h136zM349 899l-53 -70h-97l88 104h124l90 -104h-98z" />
    <glyph glyph-name="Udieresis" unicode="&#xdc;" horiz-adv-x="700" 
d="M38 0zM661 780v-428q0 -170 -78.5 -261t-220.5 -91h-26q-143 0 -220.5 90.5t-77.5 261.5v428h136v-428q0 -62 9 -103t28.5 -66.5t50 -36t74.5 -10.5h26q43 0 74 11t51 36t29 66.5t9 102.5v428h136zM274 830q-21 0 -34.5 14.5t-13.5 35.5q0 22 13.5 36t34.5 14t35.5 -14
t14.5 -36q0 -21 -14.5 -35.5t-35.5 -14.5zM424 830q-19 0 -34 14.5t-15 35.5q0 22 15 36t34 14q22 0 35.5 -14t13.5 -36q0 -21 -13.5 -35.5t-35.5 -14.5z" />
    <glyph glyph-name="Yacute" unicode="&#xdd;" horiz-adv-x="673" 
d="M25 0zM648 780v-205q0 -153 -64 -242t-181 -106v-227h-136v228q-117 17 -179.5 105.5t-62.5 241.5v205h136v-205q0 -61 9 -102t28.5 -66.5t50 -36.5t74.5 -11h26q43 0 74 11t51 36.5t29 67t9 101.5v205h136zM331 819h-82l60 105h114z" />
    <glyph glyph-name="Thorn" unicode="&#xde;" horiz-adv-x="601" 
d="M298 251q36 0 65.5 10.5t50.5 30t32.5 46t11.5 58.5q0 31 -11.5 57.5t-32.5 45.5t-50.5 30t-65.5 11h-119v-289h119zM179 115v-115h-136v780h136v-104h123q67 0 120 -21.5t90 -59t57 -89t20 -111.5t-20 -111.5t-57.5 -89t-90.5 -58.5t-119 -21h-123z" />
    <glyph glyph-name="germandbls" unicode="&#xdf;" horiz-adv-x="1243" 
d="M36 0zM49 0v136h273q63 0 104 30t41 78q0 24 -11 44t-30 34.5t-46 22.5t-58 8h-62q-48 0 -89 15.5t-71 44t-47 67t-17 85.5q0 46 17.5 85t49.5 68t77 45.5t99 16.5h259v-136h-266q-43 0 -68 -23.5t-25 -56.5q0 -36 25.5 -60t67.5 -24h77q52 0 96 -17.5t76 -49.5t50 -76
t18 -96q0 -53 -19 -97t-54.5 -76t-84.5 -50t-109 -18h-273zM671 0v136h273q63 0 104 30t41 78q0 24 -11 44t-30 34.5t-46 22.5t-58 8h-62q-48 0 -89 15.5t-71 44t-47 67t-17 85.5q0 46 17.5 85t49.5 68t77 45.5t99 16.5h259v-136h-266q-43 0 -68 -23.5t-25 -56.5
q0 -36 25.5 -60t67.5 -24h77q52 0 96 -17.5t76 -49.5t50 -76t18 -96q0 -53 -19 -97t-54.5 -76t-84.5 -50t-109 -18h-273z" />
    <glyph glyph-name="agrave" unicode="&#xe0;" 
d="M0 0zM483 745q14 22 34.5 31.5t43.5 9.5q26 0 41.5 -18.5t15.5 -49.5v-718h-135v527l-334 -527h-162zM426 922h114l59 -105h-81z" />
    <glyph glyph-name="aacute" unicode="&#xe1;" 
d="M0 0zM483 745q14 22 34.5 31.5t43.5 9.5q26 0 41.5 -18.5t15.5 -49.5v-718h-135v527l-334 -527h-162zM565 819h-82l60 105h114z" />
    <glyph glyph-name="acircumflex" unicode="&#xe2;" 
d="M0 0zM483 745q14 22 34.5 31.5t43.5 9.5q26 0 41.5 -18.5t15.5 -49.5v-718h-135v527l-334 -527h-162zM570 899l-53 -70h-97l88 104h124l90 -104h-98z" />
    <glyph glyph-name="atilde" unicode="&#xe3;" 
d="M0 0zM483 745q14 22 34.5 31.5t43.5 9.5q26 0 41.5 -18.5t15.5 -49.5v-718h-135v527l-334 -527h-162zM689 872q-19 -52 -80 -52q-15 0 -26.5 5t-22 10.5t-21.5 10.5t-23 5q-13 0 -26 -8t-26 -28l-38 42q16 30 36 43t45 13q20 0 32.5 -4.5t22.5 -10t20 -10t24 -4.5
q33 0 49 37z" />
    <glyph glyph-name="adieresis" unicode="&#xe4;" 
d="M0 0zM483 745q14 22 34.5 31.5t43.5 9.5q26 0 41.5 -18.5t15.5 -49.5v-718h-135v527l-334 -527h-162zM480 830q-21 0 -34.5 14.5t-13.5 35.5q0 22 13.5 36t34.5 14t35.5 -14t14.5 -36q0 -21 -14.5 -35.5t-35.5 -14.5zM630 830q-19 0 -34 14.5t-15 35.5q0 22 15 36t34 14
q22 0 35.5 -14t13.5 -36q0 -21 -13.5 -35.5t-35.5 -14.5z" />
    <glyph glyph-name="aring" unicode="&#xe5;" 
d="M0 0zM483 745q14 22 34.5 31.5t43.5 9.5q26 0 41.5 -18.5t15.5 -49.5v-718h-135v527l-334 -527h-162zM571 930q-15 0 -27 -10.5t-12 -29.5t12 -30t27 -11t27.5 11t12.5 30t-12.5 29.5t-27.5 10.5zM571 825q-29 0 -47.5 18t-18.5 47t18.5 49t47.5 20q28 0 47 -20.5
t19 -48.5q0 -29 -19 -47t-47 -18z" />
    <glyph glyph-name="ae" unicode="&#xe6;" horiz-adv-x="902" 
d="M0 0zM869 0h-391v527l-334 -527h-161l495 745q16 22 36 28.5t43 6.5h307v-136h-246v-181h211v-135h-211v-192h251v-136z" />
    <glyph glyph-name="ccedilla" unicode="&#xe7;" horiz-adv-x="549" 
d="M25 0zM418 0q-87 0 -159.5 30.5t-124 84t-80.5 126.5t-29 157q0 85 28.5 155t80 120.5t124 78.5t160.5 28h114v-136h-114q-56 0 -103.5 -19.5t-82 -53.5t-54 -81.5t-19.5 -102.5t19 -101t53 -79.5t82 -52t105 -18.5h114v-136h-114zM250 -241l22 187h136l-65 -187h-93z
" />
    <glyph glyph-name="egrave" unicode="&#xe8;" horiz-adv-x="451" 
d="M43 0zM430 0h-387v780h381v-136h-245v-181h211v-135h-211v-192h251v-136zM156 922h114l59 -105h-81z" />
    <glyph glyph-name="eacute" unicode="&#xe9;" horiz-adv-x="451" 
d="M43 0zM430 0h-387v780h381v-136h-245v-181h211v-135h-211v-192h251v-136zM246 819h-82l60 105h114z" />
    <glyph glyph-name="ecircumflex" unicode="&#xea;" horiz-adv-x="451" 
d="M43 0zM430 0h-387v780h381v-136h-245v-181h211v-135h-211v-192h251v-136zM243 899l-53 -70h-97l88 104h124l90 -104h-98z" />
    <glyph glyph-name="edieresis" unicode="&#xeb;" horiz-adv-x="451" 
d="M43 0zM430 0h-387v780h381v-136h-245v-181h211v-135h-211v-192h251v-136zM180 830q-21 0 -34.5 14.5t-13.5 35.5q0 22 13.5 36t34.5 14t35.5 -14t14.5 -36q0 -21 -14.5 -35.5t-35.5 -14.5zM330 830q-19 0 -34 14.5t-15 35.5q0 22 15 36t34 14q22 0 35.5 -14t13.5 -36
q0 -21 -13.5 -35.5t-35.5 -14.5z" />
    <glyph glyph-name="igrave" unicode="&#xec;" horiz-adv-x="225" 
d="M4 0zM43 0v780h136v-780h-136zM4 922h114l59 -105h-81z" />
    <glyph glyph-name="iacute" unicode="&#xed;" horiz-adv-x="225" 
d="M43 0zM43 0v780h136v-780h-136zM126 819h-82l60 105h114z" />
    <glyph glyph-name="icircumflex" unicode="&#xee;" horiz-adv-x="225" 
d="M0 0zM43 0v780h136v-780h-136zM115 899l-53 -70h-97l88 104h124l90 -104h-98z" />
    <glyph glyph-name="idieresis" unicode="&#xef;" horiz-adv-x="225" 
d="M0 0zM43 0v780h136v-780h-136zM41 830q-21 0 -34.5 14.5t-13.5 35.5q0 22 13.5 36t34.5 14t35.5 -14t14.5 -36q0 -21 -14.5 -35.5t-35.5 -14.5zM191 830q-19 0 -34 14.5t-15 35.5q0 22 15 36t34 14q22 0 35.5 -14t13.5 -36q0 -21 -13.5 -35.5t-35.5 -14.5z" />
    <glyph glyph-name="eth" unicode="&#xf0;" horiz-adv-x="688" 
d="M43 0zM43 0v780h224q87 0 159 -28t124 -78.5t81 -120.5t29 -155q0 -84 -29.5 -157t-81.5 -126.5t-124.5 -84t-157.5 -30.5h-224zM179 644v-181h182v-135h-182v-192h88q58 0 105 19t81 52.5t52.5 79.5t18.5 100q0 55 -19 102.5t-53 81.5t-81.5 53.5t-103.5 19.5h-88z" />
    <glyph glyph-name="ntilde" unicode="&#xf1;" horiz-adv-x="737" 
d="M43 0zM174 541v-541h-131v712q0 31 17 49.5t49 18.5q20 0 37.5 -8.5t35.5 -31.5l381 -501v541h130v-713q0 -75 -51 -75q-25 0 -44 11.5t-42 35.5zM500 872q-19 -52 -80 -52q-15 0 -26.5 5t-22 10.5t-21.5 10.5t-23 5q-13 0 -26 -8t-26 -28l-38 42q16 30 36 43t45 13
q20 0 32.5 -4.5t22.5 -10t20 -10t24 -4.5q33 0 49 37z" />
    <glyph glyph-name="ograve" unicode="&#xf2;" horiz-adv-x="871" 
d="M31 0zM424 0q-86 0 -158.5 30.5t-124.5 84.5t-81 126.5t-29 156.5t28.5 154t80 121t124 79t160.5 28h23q89 0 161.5 -28.5t124 -79.5t79.5 -121t28 -153q0 -84 -29 -156.5t-81.5 -126.5t-124.5 -84.5t-158 -30.5h-23zM424 644q-56 0 -103 -19t-81.5 -53t-54 -81
t-19.5 -104q0 -55 19 -101t53 -79.5t81.5 -52t104.5 -18.5h23q58 0 105.5 19t81.5 52.5t52.5 79.5t18.5 100q0 56 -19 103t-53.5 81.5t-82 53.5t-103.5 19h-23zM349 922h114l59 -105h-81z" />
    <glyph glyph-name="oacute" unicode="&#xf3;" horiz-adv-x="871" 
d="M31 0zM424 0q-86 0 -158.5 30.5t-124.5 84.5t-81 126.5t-29 156.5t28.5 154t80 121t124 79t160.5 28h23q89 0 161.5 -28.5t124 -79.5t79.5 -121t28 -153q0 -84 -29 -156.5t-81.5 -126.5t-124.5 -84.5t-158 -30.5h-23zM424 644q-56 0 -103 -19t-81.5 -53t-54 -81
t-19.5 -104q0 -55 19 -101t53 -79.5t81.5 -52t104.5 -18.5h23q58 0 105.5 19t81.5 52.5t52.5 79.5t18.5 100q0 56 -19 103t-53.5 81.5t-82 53.5t-103.5 19h-23zM430 819h-82l60 105h114z" />
    <glyph glyph-name="ocircumflex" unicode="&#xf4;" horiz-adv-x="871" 
d="M31 0zM424 0q-86 0 -158.5 30.5t-124.5 84.5t-81 126.5t-29 156.5t28.5 154t80 121t124 79t160.5 28h23q89 0 161.5 -28.5t124 -79.5t79.5 -121t28 -153q0 -84 -29 -156.5t-81.5 -126.5t-124.5 -84.5t-158 -30.5h-23zM424 644q-56 0 -103 -19t-81.5 -53t-54 -81
t-19.5 -104q0 -55 19 -101t53 -79.5t81.5 -52t104.5 -18.5h23q58 0 105.5 19t81.5 52.5t52.5 79.5t18.5 100q0 56 -19 103t-53.5 81.5t-82 53.5t-103.5 19h-23zM435 899l-53 -70h-97l88 104h124l90 -104h-98z" />
    <glyph glyph-name="otilde" unicode="&#xf5;" horiz-adv-x="871" 
d="M31 0zM424 0q-86 0 -158.5 30.5t-124.5 84.5t-81 126.5t-29 156.5t28.5 154t80 121t124 79t160.5 28h23q89 0 161.5 -28.5t124 -79.5t79.5 -121t28 -153q0 -84 -29 -156.5t-81.5 -126.5t-124.5 -84.5t-158 -30.5h-23zM424 644q-56 0 -103 -19t-81.5 -53t-54 -81
t-19.5 -104q0 -55 19 -101t53 -79.5t81.5 -52t104.5 -18.5h23q58 0 105.5 19t81.5 52.5t52.5 79.5t18.5 100q0 56 -19 103t-53.5 81.5t-82 53.5t-103.5 19h-23zM567 872q-19 -52 -80 -52q-15 0 -26.5 5t-22 10.5t-21.5 10.5t-23 5q-13 0 -26 -8t-26 -28l-38 42q16 30 36 43
t45 13q20 0 32.5 -4.5t22.5 -10t20 -10t24 -4.5q33 0 49 37z" />
    <glyph glyph-name="odieresis" unicode="&#xf6;" horiz-adv-x="871" 
d="M31 0zM424 0q-86 0 -158.5 30.5t-124.5 84.5t-81 126.5t-29 156.5t28.5 154t80 121t124 79t160.5 28h23q89 0 161.5 -28.5t124 -79.5t79.5 -121t28 -153q0 -84 -29 -156.5t-81.5 -126.5t-124.5 -84.5t-158 -30.5h-23zM424 644q-56 0 -103 -19t-81.5 -53t-54 -81
t-19.5 -104q0 -55 19 -101t53 -79.5t81.5 -52t104.5 -18.5h23q58 0 105.5 19t81.5 52.5t52.5 79.5t18.5 100q0 56 -19 103t-53.5 81.5t-82 53.5t-103.5 19h-23zM360 830q-21 0 -34.5 14.5t-13.5 35.5q0 22 13.5 36t34.5 14t35.5 -14t14.5 -36q0 -21 -14.5 -35.5t-35.5 -14.5
zM510 830q-19 0 -34 14.5t-15 35.5q0 22 15 36t34 14q22 0 35.5 -14t13.5 -36q0 -21 -13.5 -35.5t-35.5 -14.5z" />
    <glyph glyph-name="oslash" unicode="&#xf8;" horiz-adv-x="871" 
d="M31 0zM214 -1l20 43q-49 27 -87 65t-63.5 84.5t-39 98.5t-13.5 108q0 84 28.5 154t80 121t124 79t160.5 28h23q77 0 138 -19l10 19h63l-20 -40q99 -48 150.5 -139t51.5 -203q0 -84 -29 -156.5t-81.5 -126.5t-124.5 -84.5t-158 -30.5h-23q-71 0 -132 18l-10 -19h-68z
M424 644q-56 0 -103 -19t-81.5 -53t-54 -81t-19.5 -104q0 -72 33 -132t95 -91l229 471q-35 9 -76 9h-23zM447 136q58 0 105.5 19t81.5 52.5t52.5 79.5t18.5 100q0 74 -32.5 133.5t-95.5 92.5l-225 -470q31 -7 72 -7h23z" />
    <glyph glyph-name="ugrave" unicode="&#xf9;" horiz-adv-x="700" 
d="M38 0zM661 780v-428q0 -170 -78.5 -261t-220.5 -91h-26q-143 0 -220.5 90.5t-77.5 261.5v428h136v-428q0 -62 9 -103t28.5 -66.5t50 -36t74.5 -10.5h26q43 0 74 11t51 36t29 66.5t9 102.5v428h136zM263 922h114l59 -105h-81z" />
    <glyph glyph-name="uacute" unicode="&#xfa;" horiz-adv-x="700" 
d="M38 0zM661 780v-428q0 -170 -78.5 -261t-220.5 -91h-26q-143 0 -220.5 90.5t-77.5 261.5v428h136v-428q0 -62 9 -103t28.5 -66.5t50 -36t74.5 -10.5h26q43 0 74 11t51 36t29 66.5t9 102.5v428h136zM345 819h-82l60 105h114z" />
    <glyph glyph-name="ucircumflex" unicode="&#xfb;" horiz-adv-x="700" 
d="M38 0zM661 780v-428q0 -170 -78.5 -261t-220.5 -91h-26q-143 0 -220.5 90.5t-77.5 261.5v428h136v-428q0 -62 9 -103t28.5 -66.5t50 -36t74.5 -10.5h26q43 0 74 11t51 36t29 66.5t9 102.5v428h136zM349 899l-53 -70h-97l88 104h124l90 -104h-98z" />
    <glyph glyph-name="udieresis" unicode="&#xfc;" horiz-adv-x="700" 
d="M38 0zM661 780v-428q0 -170 -78.5 -261t-220.5 -91h-26q-143 0 -220.5 90.5t-77.5 261.5v428h136v-428q0 -62 9 -103t28.5 -66.5t50 -36t74.5 -10.5h26q43 0 74 11t51 36t29 66.5t9 102.5v428h136zM274 830q-21 0 -34.5 14.5t-13.5 35.5q0 22 13.5 36t34.5 14t35.5 -14
t14.5 -36q0 -21 -14.5 -35.5t-35.5 -14.5zM424 830q-19 0 -34 14.5t-15 35.5q0 22 15 36t34 14q22 0 35.5 -14t13.5 -36q0 -21 -13.5 -35.5t-35.5 -14.5z" />
    <glyph glyph-name="yacute" unicode="&#xfd;" horiz-adv-x="673" 
d="M25 0zM648 780v-205q0 -153 -64 -242t-181 -106v-227h-136v228q-117 17 -179.5 105.5t-62.5 241.5v205h136v-205q0 -61 9 -102t28.5 -66.5t50 -36.5t74.5 -11h26q43 0 74 11t51 36.5t29 67t9 101.5v205h136zM331 819h-82l60 105h114z" />
    <glyph glyph-name="thorn" unicode="&#xfe;" horiz-adv-x="601" 
d="M43 0zM298 251q36 0 65.5 10.5t50.5 30t32.5 46t11.5 58.5q0 31 -11.5 57.5t-32.5 45.5t-50.5 30t-65.5 11h-119v-289h119zM179 115v-115h-136v780h136v-104h123q67 0 120 -21.5t90 -59t57 -89t20 -111.5t-20 -111.5t-57.5 -89t-90.5 -58.5t-119 -21h-123z" />
    <glyph glyph-name="ydieresis" unicode="&#xff;" horiz-adv-x="673" 
d="M25 0zM648 780v-205q0 -153 -64 -242t-181 -106v-227h-136v228q-117 17 -179.5 105.5t-62.5 241.5v205h136v-205q0 -61 9 -102t28.5 -66.5t50 -36.5t74.5 -11h26q43 0 74 11t51 36.5t29 67t9 101.5v205h136zM261 830q-21 0 -34.5 14.5t-13.5 35.5q0 22 13.5 36t34.5 14
t35.5 -14t14.5 -36q0 -21 -14.5 -35.5t-35.5 -14.5zM411 830q-19 0 -34 14.5t-15 35.5q0 22 15 36t34 14q22 0 35.5 -14t13.5 -36q0 -21 -13.5 -35.5t-35.5 -14.5z" />
    <glyph glyph-name="dotlessi" unicode="&#x131;" horiz-adv-x="225" 
d="M43 0zM43 0v780h136v-780h-136z" />
    <glyph glyph-name="Lslash" unicode="&#x141;" horiz-adv-x="395" 
d="M36 0v780h135v-364l121 112l41 -58l-162 -158v-176h212v-136h-347z" />
    <glyph glyph-name="lslash" unicode="&#x142;" horiz-adv-x="395" 
d="M36 0zM36 0v780h135v-364l121 112l41 -58l-162 -158v-176h212v-136h-347z" />
    <glyph glyph-name="OE" unicode="&#x152;" horiz-adv-x="1125" 
d="M1090 0h-386v87q-104 -87 -255 -87h-23q-86 0 -158 30.5t-124 84t-81 126.5t-29 157q0 85 28.5 155.5t80.5 120.5t124 78t159 28h23q154 0 255 -80v80h381v-136h-245v-181h210v-135h-210v-192h250v-136zM426 644q-55 0 -102.5 -19t-82 -53.5t-54 -81.5t-19.5 -103
q0 -55 19 -101t53 -79.5t81.5 -52t104.5 -18.5h23q58 0 105.5 19t81.5 52.5t52.5 79.5t18.5 100q0 56 -19 103t-53.5 81.5t-82 53.5t-103.5 19h-23z" />
    <glyph glyph-name="oe" unicode="&#x153;" horiz-adv-x="1125" 
d="M34 0zM1090 0h-386v87q-104 -87 -255 -87h-23q-86 0 -158 30.5t-124 84t-81 126.5t-29 157q0 85 28.5 155.5t80.5 120.5t124 78t159 28h23q154 0 255 -80v80h381v-136h-245v-181h210v-135h-210v-192h250v-136zM426 644q-55 0 -102.5 -19t-82 -53.5t-54 -81.5t-19.5 -103
q0 -55 19 -101t53 -79.5t81.5 -52t104.5 -18.5h23q58 0 105.5 19t81.5 52.5t52.5 79.5t18.5 100q0 56 -19 103t-53.5 81.5t-82 53.5t-103.5 19h-23z" />
    <glyph glyph-name="Scaron" unicode="&#x160;" horiz-adv-x="622" 
d="M36 0zM49 0v136h273q63 0 104 30t41 78q0 24 -11 44t-30 34.5t-46 22.5t-58 8h-62q-48 0 -89 15.5t-71 44t-47 67t-17 85.5q0 46 17.5 85t49.5 68t77 45.5t99 16.5h259v-136h-266q-43 0 -68 -23.5t-25 -56.5q0 -36 25.5 -60t67.5 -24h77q52 0 96 -17.5t76 -49.5t50 -76
t18 -96q0 -53 -19 -97t-54.5 -76t-84.5 -50t-109 -18h-273zM311 862l54 71h97l-88 -104h-124l-90 104h98z" />
    <glyph glyph-name="scaron" unicode="&#x161;" horiz-adv-x="622" 
d="M36 0zM49 0v136h273q63 0 104 30t41 78q0 24 -11 44t-30 34.5t-46 22.5t-58 8h-62q-48 0 -89 15.5t-71 44t-47 67t-17 85.5q0 46 17.5 85t49.5 68t77 45.5t99 16.5h259v-136h-266q-43 0 -68 -23.5t-25 -56.5q0 -36 25.5 -60t67.5 -24h77q52 0 96 -17.5t76 -49.5t50 -76
t18 -96q0 -53 -19 -97t-54.5 -76t-84.5 -50t-109 -18h-273zM311 862l54 71h97l-88 -104h-124l-90 104h98z" />
    <glyph glyph-name="Ydieresis" unicode="&#x178;" horiz-adv-x="673" 
d="M25 0zM648 780v-205q0 -153 -64 -242t-181 -106v-227h-136v228q-117 17 -179.5 105.5t-62.5 241.5v205h136v-205q0 -61 9 -102t28.5 -66.5t50 -36.5t74.5 -11h26q43 0 74 11t51 36.5t29 67t9 101.5v205h136zM261 830q-21 0 -34.5 14.5t-13.5 35.5q0 22 13.5 36t34.5 14
t35.5 -14t14.5 -36q0 -21 -14.5 -35.5t-35.5 -14.5zM411 830q-19 0 -34 14.5t-15 35.5q0 22 15 36t34 14q22 0 35.5 -14t13.5 -36q0 -21 -13.5 -35.5t-35.5 -14.5z" />
    <glyph glyph-name="Zcaron" unicode="&#x17d;" horiz-adv-x="603" 
d="M22 0zM126 0q-104 0 -104 64q0 28 26 69l326 511h-334v136h415q48 0 77.5 -20.5t29.5 -54.5q0 -29 -19 -58l-327 -511h335v-136h-425zM301 862l54 71h97l-88 -104h-124l-90 104h98z" />
    <glyph glyph-name="zcaron" unicode="&#x17e;" horiz-adv-x="603" 
d="M22 0zM126 0q-104 0 -104 64q0 28 26 69l326 511h-334v136h415q48 0 77.5 -20.5t29.5 -54.5q0 -29 -19 -58l-327 -511h335v-136h-425zM301 862l54 71h97l-88 -104h-124l-90 104h98z" />
    <glyph glyph-name="florin" unicode="&#x192;" horiz-adv-x="622" 
d="M303 0q-60 0 -109 18t-84.5 50t-54.5 76t-19 97q0 52 18 96t50 76t76 49.5t96 17.5h77q42 0 67.5 24t25.5 60q0 33 -25 56.5t-68 23.5h-266v136h259q54 0 99 -16.5t77 -45.5t49.5 -68t17.5 -85q0 -47 -17 -85.5t-47 -67t-71 -44t-89 -15.5h-62q-32 0 -58.5 -8
t-45.5 -22.5t-30 -34.5t-11 -44q0 -48 41 -78t104 -30h273v-136h-273z" />
    <glyph glyph-name="circumflex" unicode="&#x2c6;" horiz-adv-x="293" 
d="M145 898l-53 -70h-97l88 104h124l90 -104h-98z" />
    <glyph glyph-name="caron" unicode="&#x2c7;" horiz-adv-x="293" 
d="M145 861l54 71h97l-88 -104h-124l-90 104h98z" />
    <glyph glyph-name="ring" unicode="&#x2da;" horiz-adv-x="248" 
d="M125 929q-15 0 -27 -10.5t-12 -29.5t12 -30t27 -11t27.5 11t12.5 30t-12.5 29.5t-27.5 10.5zM125 824q-29 0 -47.5 18t-18.5 47t18.5 49t47.5 20q28 0 47 -20.5t19 -48.5q0 -29 -19 -47t-47 -18z" />
    <glyph glyph-name="tilde" unicode="&#x2dc;" horiz-adv-x="340" 
d="M301 871q-19 -52 -80 -52q-15 0 -26.5 5t-22 10.5t-21.5 10.5t-23 5q-13 0 -26 -8t-26 -28l-38 42q16 30 36 43t45 13q20 0 32.5 -4.5t22.5 -10t20 -10t24 -4.5q33 0 49 37z" />
    <glyph glyph-name="endash" unicode="&#x2013;" horiz-adv-x="692" 
d="M43 328v135h609v-135h-609z" />
    <glyph glyph-name="emdash" unicode="&#x2014;" horiz-adv-x="894" 
d="M43 328v135h810v-135h-810z" />
    <glyph glyph-name="quoteleft" unicode="&#x2018;" horiz-adv-x="216" 
d="M91 597l-76 238h136l32 -238h-92z" />
    <glyph glyph-name="quoteright" unicode="&#x2019;" horiz-adv-x="216" 
d="M30 597l33 238h136l-76 -238h-93z" />
    <glyph glyph-name="quotesinglbase" unicode="&#x201a;" horiz-adv-x="216" 
d="M30 -68l33 238h136l-76 -238h-93z" />
    <glyph glyph-name="quotedblleft" unicode="&#x201c;" horiz-adv-x="426" 
d="M296 597l-76 238h136l32 -238h-92zM105 597l-76 238h136l32 -238h-92z" />
    <glyph glyph-name="quotedblright" unicode="&#x201d;" horiz-adv-x="425" 
d="M228 597l32 238h136l-76 -238h-92zM37 597l32 238h136l-76 -238h-92z" />
    <glyph glyph-name="quotedblbase" unicode="&#x201e;" horiz-adv-x="425" 
d="M228 -68l32 238h136l-76 -238h-92zM37 -68l32 238h136l-76 -238h-92z" />
    <glyph glyph-name="bullet" unicode="&#x2022;" horiz-adv-x="575" 
d="M150 393q0 27 10 50.5t27.5 41t41 27.5t50.5 10t50.5 -10t41 -27.5t27.5 -41t10 -50.5t-10 -50.5t-27.5 -41t-41 -27.5t-50.5 -10t-50.5 10t-41 27.5t-27.5 41t-10 50.5z" />
    <glyph glyph-name="ellipsis" unicode="&#x2026;" horiz-adv-x="1217" 
d="M112 135q28 0 48.5 -18t20.5 -51q0 -32 -20.5 -50.5t-48.5 -18.5t-49 18.5t-21 50.5q0 33 21 51t49 18zM609 135q28 0 48.5 -18t20.5 -51q0 -32 -20.5 -50.5t-48.5 -18.5q-29 0 -49.5 18.5t-20.5 50.5q0 33 20.5 51t49.5 18zM1106 135q28 0 48.5 -18t20.5 -51
q0 -32 -20.5 -50.5t-48.5 -18.5q-29 0 -49.5 18.5t-20.5 50.5q0 33 20.5 51t49.5 18z" />
    <glyph glyph-name="fraction" unicode="&#x2044;" horiz-adv-x="298" 
d="M-137 0h-93l596 780h90z" />
    <glyph glyph-name="Euro" unicode="&#x20ac;" horiz-adv-x="592" 
d="M214 308q11 -39 33.5 -71t54.5 -54.5t72 -34.5t87 -12h33l28 -136h-61q-75 0 -139 23t-114 64t-83.5 97.5t-47.5 123.5h-60l24 70h27v20v15.5t1 15.5h-52l24 70h38q15 63 48.5 115t83 89t113 57t137.5 20h97l-42 -136h-55q-81 0 -143 -39.5t-92 -105.5h246l-22 -70h-245
q-2 -7 -2 -13v-12v-26h231l-21 -70h-199z" />
    <glyph glyph-name="trademark" unicode="&#x2122;" horiz-adv-x="609" 
d="M188 722v-244h-64v244h-77v58h216v-58h-75zM486 644l-65 -167l-72 174v-171h-59v300h72l58 -155l56 155h71v-300h-61v164z" />
    <glyph glyph-name=".null" horiz-adv-x="0" 
 />
    <glyph glyph-name="nonmarkingreturn" horiz-adv-x="241" 
 />
    <glyph glyph-name=".ttfautohint" horiz-adv-x="241" 
d="M0 0z" />
    </font>
</defs>
</svg>
