<?xml version="1.0" standalone="no"?>
<!DOCTYPE svg PUBLIC "-//W3C//DTD SVG 20010904//EN"
 "http://www.w3.org/TR/2001/REC-SVG-20010904/DTD/svg10.dtd">
<svg version="1.0" xmlns="http://www.w3.org/2000/svg"
 width="1024.000000pt" height="1024.000000pt" viewBox="0 0 1024.000000 1024.000000"
 preserveAspectRatio="xMidYMid meet">
<metadata>
Created by potrace 1.11, written by Peter Selinger 2001-2013
</metadata>
<g transform="translate(0.000000,1024.000000) scale(0.100000,-0.100000)"
fill="#000000" stroke="none">
<path d="M6308 9745 c-2 -2 -25 -5 -53 -9 -142 -17 -320 -85 -406 -155 -56
-45 -129 -118 -129 -129 0 -6 -3 -12 -7 -14 -16 -7 -133 -173 -133 -189 0 -5
-4 -9 -10 -9 -5 0 -10 -7 -10 -15 0 -8 -4 -15 -10 -15 -5 0 -10 -7 -10 -15 0
-8 -4 -15 -10 -15 -5 0 -10 -5 -10 -12 0 -6 -7 -19 -15 -27 -8 -9 -47 -67 -87
-128 -40 -61 -127 -191 -193 -290 -128 -190 -138 -206 -156 -240 -7 -13 -16
-23 -21 -23 -4 0 -8 -7 -8 -15 0 -8 -4 -15 -10 -15 -5 0 -10 -7 -10 -15 0 -8
-4 -15 -10 -15 -5 0 -10 -7 -10 -15 0 -8 -4 -15 -10 -15 -5 0 -10 -5 -10 -10
0 -10 -33 -61 -55 -85 -5 -7 -19 -28 -30 -48 -11 -20 -23 -37 -27 -37 -5 0 -8
-7 -8 -15 0 -8 -4 -15 -10 -15 -5 0 -10 -7 -10 -15 0 -8 -4 -15 -10 -15 -5 0
-10 -4 -10 -8 0 -9 -167 -263 -190 -289 -5 -7 -10 -15 -10 -18 0 -8 -44 -69
-52 -73 -5 -2 -8 -8 -8 -13 0 -8 -59 -99 -71 -109 -3 -3 -8 -10 -10 -15 -4
-10 -356 -540 -372 -560 -4 -5 -45 -66 -90 -135 -45 -69 -87 -131 -94 -138 -7
-7 -13 -20 -13 -28 0 -8 -5 -14 -10 -14 -6 0 -14 -8 -18 -17 -6 -16 -459 -702
-480 -728 -4 -5 -93 -138 -197 -295 -104 -157 -192 -287 -195 -290 -4 -3 -9
-10 -11 -15 -8 -21 -303 -460 -311 -463 -4 -2 -8 -8 -8 -14 0 -5 -11 -24 -25
-42 -14 -18 -25 -38 -25 -44 0 -6 -4 -12 -8 -14 -4 -1 -44 -57 -87 -123 -44
-66 -82 -122 -85 -125 -3 -3 -11 -17 -17 -32 -7 -16 -17 -28 -23 -28 -5 0 -10
-6 -10 -13 0 -7 -9 -23 -20 -35 -11 -12 -20 -24 -20 -27 0 -8 -43 -68 -55 -77
-5 -4 -6 -8 -1 -8 5 0 2 -8 -7 -17 -8 -10 -54 -76 -101 -148 -47 -71 -90 -137
-96 -145 -82 -119 -150 -224 -150 -231 0 -5 -4 -9 -9 -9 -5 0 -13 -9 -16 -20
-3 -11 -12 -26 -18 -32 -7 -7 -32 -44 -57 -83 -24 -38 -47 -72 -50 -75 -5 -5
-56 -80 -75 -112 -16 -26 -93 -142 -102 -153 -4 -5 -37 -55 -73 -110 -36 -55
-67 -102 -70 -105 -3 -3 -34 -50 -70 -105 -36 -55 -67 -102 -70 -105 -10 -9
-140 -210 -138 -212 1 -2 -10 -16 -25 -32 -15 -16 -24 -32 -21 -37 3 -5 2 -9
-3 -9 -4 0 -26 -28 -48 -63 -22 -34 -45 -68 -52 -75 -7 -7 -13 -17 -13 -21 0
-4 -8 -16 -19 -27 -10 -11 -21 -30 -25 -40 -6 -20 -1 -20 756 -20 667 1 762 3
766 16 3 8 8 17 11 20 12 9 151 231 151 240 0 6 5 10 10 10 6 0 10 7 10 15 0
8 3 15 8 15 4 0 16 17 27 37 11 21 25 44 32 50 6 7 17 26 25 43 7 16 16 30 20
30 5 0 8 5 8 10 0 6 5 16 10 23 6 7 28 39 49 72 21 33 51 80 67 105 38 59 44
69 79 129 17 28 33 51 38 51 4 0 7 5 7 10 0 6 22 44 50 86 27 41 50 77 50 79
0 2 27 44 60 94 33 50 60 95 60 101 0 5 5 10 10 10 6 0 10 4 10 10 0 5 26 49
58 98 31 49 77 121 102 161 25 40 51 79 58 86 6 8 12 16 12 20 0 3 18 33 40
66 22 33 40 62 40 65 0 2 15 26 33 52 17 26 37 57 44 67 7 11 40 63 73 115 33
52 66 104 73 115 7 11 22 34 34 52 13 17 23 36 23 42 0 6 5 11 10 11 6 0 10 6
10 13 0 8 9 24 20 37 11 13 20 27 20 31 0 4 6 14 13 21 6 8 17 23 23 33 6 11
49 79 94 150 45 72 112 177 149 235 36 58 69 107 73 108 5 2 8 8 8 12 0 9 70
124 90 147 5 7 10 15 10 18 0 3 5 11 11 18 5 7 25 36 42 64 46 76 216 343 238
375 10 15 19 31 19 37 0 5 3 11 8 13 9 4 112 167 112 178 0 5 3 10 8 12 6 3
46 62 127 194 11 17 38 60 59 95 22 35 44 66 48 67 4 2 8 10 8 18 0 8 5 14 10
14 6 0 10 6 10 14 0 8 6 21 13 28 19 21 147 227 147 238 0 5 5 10 10 10 6 0
14 8 18 18 10 24 104 174 119 190 7 7 13 20 13 28 0 8 5 14 10 14 6 0 10 7 10
15 0 8 4 15 8 15 5 0 14 10 20 23 6 12 22 38 34 59 87 139 128 202 129 198 1
-3 2 -621 3 -1374 1 -952 -2 -1373 -10 -1380 -5 -6 -43 -60 -82 -121 -40 -60
-79 -119 -87 -130 -52 -73 -325 -489 -325 -496 0 -5 -4 -9 -9 -9 -5 0 -13 -9
-16 -20 -3 -11 -12 -26 -19 -32 -6 -7 -34 -47 -60 -88 -27 -41 -52 -77 -57
-78 -5 -2 -9 -8 -9 -13 0 -8 -67 -116 -80 -129 -10 -10 -65 -96 -72 -113 -4
-9 -12 -17 -18 -17 -6 0 -9 -4 -6 -8 3 -5 -2 -18 -12 -28 -16 -18 -72 -99 -82
-119 -10 -20 -125 -190 -137 -203 -7 -7 -13 -17 -13 -21 0 -4 -9 -17 -20 -29
-12 -12 -18 -22 -16 -22 3 0 -21 -38 -54 -85 -33 -47 -56 -85 -52 -85 4 0 3
-4 -3 -8 -16 -11 -95 -129 -95 -141 0 -6 -5 -11 -10 -11 -6 0 -16 -12 -23 -27
-6 -16 -14 -30 -17 -33 -16 -15 -70 -100 -70 -109 0 -7 -7 -14 -15 -17 -8 -4
-15 -10 -15 -15 0 -4 -43 -71 -95 -148 -52 -78 -95 -145 -95 -150 0 -5 -3 -11
-8 -13 -4 -2 -48 -64 -97 -138 -49 -74 -93 -136 -97 -138 -5 -2 -8 -8 -8 -13
0 -4 -46 -77 -102 -161 -57 -84 -105 -157 -107 -163 -2 -5 -7 -12 -10 -15 -12
-10 -71 -101 -71 -109 0 -4 -9 -16 -20 -26 -11 -10 -20 -24 -20 -31 0 -7 -3
-14 -7 -16 -11 -5 -53 -66 -53 -77 0 -5 -3 -11 -7 -13 -5 -2 -42 -55 -83 -118
-41 -63 -78 -116 -82 -118 -5 -2 -8 -10 -8 -18 0 -8 -4 -14 -8 -14 -5 0 -14
-10 -21 -22 -25 -48 -89 -146 -109 -166 -7 -8 -10 -17 -7 -22 3 -4 345 -8 759
-8 l755 0 28 42 c15 22 32 49 38 58 16 28 163 262 172 274 4 5 13 19 20 30 6
10 57 91 113 179 56 88 107 169 113 180 7 11 17 23 22 27 7 5 7 8 0 8 -6 0 -5
3 1 8 15 10 69 95 66 105 -1 4 2 7 6 7 5 0 19 19 32 43 13 23 26 44 29 47 3 3
11 14 18 25 6 11 69 111 140 223 150 237 161 255 231 366 36 58 59 85 75 87
12 2 298 4 635 3 425 0 612 3 613 10 1 6 2 459 3 1006 l1 995 22 30 c36 50
116 180 114 184 -2 2 1 7 6 10 13 9 153 230 153 241 0 6 5 10 10 10 6 0 10 6
10 14 0 8 3 16 8 18 4 2 14 15 22 29 51 88 435 687 438 684 3 -2 5 -1115 6
-2472 l1 -2468 633 0 c626 0 632 0 633 20 0 11 1 1539 1 3395 0 2845 -3 3479
-17 3530 -1 3 -5 19 -10 35 -4 17 -10 35 -14 40 -3 6 -6 15 -7 22 -4 24 -53
120 -69 133 -8 7 -15 16 -15 21 0 15 -93 100 -137 126 -122 71 -266 86 -478
49 -50 -9 -141 -40 -147 -50 -4 -6 -8 -8 -8 -3 0 12 -121 -54 -180 -99 -70
-54 -114 -102 -181 -201 -30 -43 -57 -79 -61 -81 -5 -2 -8 -8 -8 -13 0 -7 -56
-95 -70 -109 -10 -10 -140 -210 -140 -216 0 -3 -6 -12 -12 -19 -27 -30 -38
-44 -38 -49 0 -3 -29 -49 -65 -101 -36 -53 -65 -101 -65 -106 0 -5 -7 -12 -15
-15 -8 -4 -15 -10 -15 -16 0 -5 -11 -24 -25 -42 -14 -18 -25 -36 -25 -40 0 -4
-8 -16 -18 -27 -11 -10 -25 -32 -33 -47 -8 -15 -16 -29 -19 -32 -12 -11 -90
-133 -90 -140 0 -5 -3 -10 -8 -12 -4 -1 -24 -29 -45 -60 -21 -32 -39 -58 -40
-58 -1 0 -2 604 -2 1343 1 738 -1 1346 -4 1351 -2 5 -5 26 -6 45 -4 96 -60
253 -117 326 -64 82 -179 163 -255 180 -13 3 -33 8 -45 11 -23 5 -185 13 -190
9z"/>
</g>
</svg>
